<svg width="116" height="40" viewBox="0 0 116 40" fill="none" xmlns="http://www.w3.org/2000/svg">
<path d="M17.4373 0.735421C17.5993 0.74439 17.7522 0.726453 17.7792 0.699547C17.8062 0.672641 17.9952 0.654704 18.2111 0.645735C18.4181 0.636766 18.742 0.681609 18.922 0.74439C19.1019 0.798201 19.2369 0.878919 19.2099 0.923762C19.1919 0.959636 19.2549 1.00448 19.3538 1.03139C19.4528 1.05829 19.5158 1.04035 19.4888 0.986542C19.4618 0.941699 19.5068 0.896856 19.5788 0.896856C19.6508 0.896856 19.7138 0.950668 19.7138 1.01345C19.7138 1.06726 19.8937 1.32735 20.1187 1.5695C20.3436 1.82062 20.6855 2.17937 20.8835 2.37668C21.0814 2.57399 21.2434 2.78923 21.2434 2.85201C21.2434 2.90582 21.2794 2.95964 21.3333 2.95964C21.3873 2.95964 21.4053 3.04035 21.3783 3.13901C21.3483 3.25859 21.3783 3.31838 21.4683 3.31838C21.5403 3.31838 21.6033 3.3991 21.6033 3.49775C21.6033 3.59641 21.6393 3.67713 21.6933 3.67713C21.7472 3.67713 21.8012 3.58744 21.8192 3.47982C21.8372 3.3423 21.8522 3.37219 21.8642 3.5695C21.8642 3.72197 21.9092 3.8565 21.9632 3.8565C22.0172 3.8565 22.0532 4.09865 22.0532 4.39461C22.0532 4.69058 22.0172 4.93273 21.9632 4.93273C21.9092 4.93273 21.8642 5.0852 21.8552 5.27354C21.8462 5.60538 21.8462 5.60538 21.7922 5.20179C21.7382 4.80717 21.7382 4.80717 21.6663 5.06726C21.6213 5.21076 21.5403 5.39013 21.4863 5.46188C21.4233 5.53363 21.3783 5.65919 21.3783 5.75784C21.3783 5.84753 21.2164 6.07174 21.0184 6.26009C20.8205 6.44843 20.4966 6.78026 20.2896 7.00448C20.0917 7.21973 19.8577 7.50672 19.7767 7.65022C19.6778 7.81165 19.5518 7.89237 19.3988 7.89237C19.2729 7.89237 19.1469 7.93722 19.1019 7.99103C19.0659 8.04484 18.9759 8.07174 18.904 8.04484C18.832 8.01793 18.661 8.06278 18.535 8.14349C18.3731 8.25112 18.1212 8.29596 17.7702 8.28699C17.4733 8.27802 17.0144 8.23318 16.7445 8.1973C16.3216 8.13452 16.2586 8.14349 16.3306 8.26009C16.3846 8.32287 16.2946 8.26905 16.1416 8.11659C15.9887 7.96412 15.8267 7.73094 15.7907 7.58744C15.7457 7.44394 15.5478 7.18385 15.3498 7.02242C15.1519 6.86098 14.873 6.66367 14.72 6.59192C14.567 6.52914 14.3421 6.43049 14.1981 6.37668C14.0542 6.3139 13.9012 6.16143 13.8382 5.99103C13.7662 5.82959 13.6673 5.55156 13.6133 5.38116C13.5503 5.21076 13.5053 4.76233 13.5053 4.39461C13.5053 4.0269 13.5503 3.57847 13.6043 3.40807C13.6673 3.23766 13.7752 2.95067 13.8652 2.78026C13.9462 2.60986 14.0632 2.47533 14.1172 2.49327C14.1801 2.50224 14.2791 2.45739 14.3421 2.40358C14.4141 2.3408 14.603 2.18834 14.765 2.06278C14.9269 1.93721 15.2419 1.68609 15.4668 1.50672C15.6828 1.31838 15.9437 1.16591 16.0427 1.16591C16.1416 1.16591 16.3036 1.09417 16.4116 1.01345C16.5196 0.923762 16.6725 0.86995 16.7535 0.878919C16.8435 0.896856 16.9604 0.86995 17.0234 0.816139C17.0954 0.771296 17.2844 0.735421 17.4373 0.735421Z" fill="white"/>
<path d="M11.6338 12.9596C11.6968 12.9865 11.9127 12.9686 12.1107 12.9238C12.3086 12.8879 12.5695 12.87 12.6955 12.8879C12.8215 12.9148 13.1544 13.0493 13.4423 13.1928C13.7213 13.3363 14.0272 13.4529 14.1082 13.4529C14.1981 13.4439 14.5221 13.6771 15.3948 14.4843V15.13C15.3948 15.4888 15.3588 15.8027 15.3049 15.8296C15.2509 15.8565 15.2149 15.9552 15.2149 16.0538C15.2149 16.1525 15.1789 16.2332 15.1249 16.2332C15.0709 16.2332 14.9899 16.2421 14.9449 16.2511C14.891 16.2691 14.819 16.3318 14.783 16.3946C14.747 16.4664 14.576 16.5112 14.3601 16.5112C14.0992 16.5022 13.9372 16.565 13.7752 16.7085C13.6493 16.8251 13.4333 16.9596 13.2804 17.0134C13.1274 17.0673 12.8305 17.1031 12.6055 17.1031C12.3176 17.0852 12.1107 17.0134 11.8857 16.843C11.7148 16.7175 11.3908 16.556 11.1659 16.4933C10.9409 16.4305 10.653 16.3049 10.5181 16.2152C10.3741 16.1256 10.2661 15.9821 10.2661 15.8924C10.2661 15.8117 10.1941 15.6951 10.1132 15.6413C9.98718 15.5695 9.95119 15.435 9.96919 15.1031C9.97819 14.861 9.99618 14.565 10.0232 14.4395C10.0412 14.3139 10.0952 14.1435 10.1401 14.0628C10.1851 13.9821 10.2661 13.9013 10.3111 13.8924C10.3561 13.8834 10.4731 13.8565 10.554 13.8386C10.644 13.8296 10.716 13.7489 10.716 13.6771C10.716 13.6054 10.761 13.5605 10.806 13.5874C10.851 13.6143 10.869 13.5785 10.842 13.5157C10.815 13.4619 10.86 13.3812 10.9319 13.3363C11.0399 13.2915 11.0669 13.3094 11.0309 13.4081C11.0039 13.4798 11.0309 13.5426 11.0849 13.5426C11.1389 13.5426 11.2829 13.4439 11.3998 13.3184C11.5168 13.1928 11.5978 13.0493 11.5708 13.0045C11.5438 12.9507 11.5798 12.9327 11.6338 12.9596Z" fill="white"/>
<path d="M24.2126 15.3543C24.1047 15.3273 24.1137 15.3004 24.2576 15.2018C24.3566 15.139 24.6715 15.0852 24.9774 15.0852C25.2744 15.0852 25.6163 15.139 25.7422 15.2108C25.8682 15.2735 25.9132 15.3274 25.8592 15.3363C25.7962 15.3363 25.7422 15.3722 25.7422 15.426C25.7422 15.4708 25.8052 15.5157 25.8862 15.5157C25.9672 15.5157 26.0482 15.5874 26.0662 15.6682C26.0842 15.7578 26.1381 15.7937 26.1741 15.7578C26.2101 15.722 26.2911 15.8206 26.3631 15.9821C26.4261 16.1435 26.4981 16.2242 26.5161 16.1614C26.534 16.1076 26.4981 15.991 26.4441 15.9103C26.3451 15.7937 26.3541 15.7758 26.4891 15.8206C26.588 15.8565 26.642 15.9641 26.642 16.1435C26.642 16.3049 26.723 16.4933 26.849 16.6099C26.9659 16.7265 27.0919 16.8969 27.1279 16.9955C27.1549 17.0942 27.1909 17.3363 27.1999 17.5336C27.1999 17.7309 27.1369 18.0269 27.0559 18.1794C26.9659 18.3677 26.849 18.4753 26.732 18.4753C26.624 18.4753 26.5161 18.565 26.4531 18.7175C26.3991 18.861 26.2641 19.148 26.1561 19.3722C26.0572 19.5964 25.9312 19.8206 25.8772 19.8744C25.8322 19.9282 25.6613 20.0359 25.5173 20.1166C25.3733 20.1973 25.3014 20.2601 25.3733 20.2691C25.4453 20.2691 25.4723 20.296 25.4453 20.3318C25.4093 20.3767 25.3283 20.3498 25.2474 20.287C25.1394 20.1973 25.1034 20.2063 25.0584 20.3318C25.0134 20.4843 24.9954 20.4753 24.8785 20.3139C24.7615 20.1614 24.7345 20.1525 24.6715 20.2691C24.5995 20.3856 24.5725 20.3856 24.4466 20.2421C24.3656 20.1614 24.2036 20.0897 24.0777 20.0897C23.9067 20.0897 23.8167 20.0179 23.7178 19.7758C23.6458 19.6054 23.5468 19.4619 23.4928 19.4619C23.4388 19.4619 23.4208 19.417 23.4478 19.3722C23.4748 19.3184 23.4208 19.2108 23.3308 19.1211C23.2409 19.0404 23.0609 18.9058 22.926 18.8341C22.746 18.7354 22.674 18.6278 22.674 18.4305C22.674 18.278 22.656 17.9462 22.629 17.6861C22.611 17.426 22.629 17.2018 22.683 17.1749C22.737 17.148 22.755 17.0852 22.728 17.0404C22.701 16.9865 22.809 16.861 22.9619 16.7444C23.1779 16.5919 23.2319 16.5022 23.1869 16.3408C23.1509 16.2152 23.1779 16.1076 23.2679 16.0538C23.3398 16 23.4658 15.9821 23.5378 16.009C23.6188 16.0359 23.6908 15.991 23.7178 15.8924C23.7447 15.8117 23.8977 15.6592 24.0597 15.5695C24.2576 15.4439 24.3026 15.3812 24.2126 15.3543Z" fill="white"/>
<path d="M16.9694 32.0359C17.2934 32.0269 17.5453 31.9552 17.7073 31.8386C17.8692 31.713 18.0852 31.6592 18.4271 31.6592C18.76 31.6592 18.9489 31.704 19.0569 31.8117C19.1469 31.9193 19.3538 31.9731 19.6148 31.9821C20.0197 32 20.0377 32.009 20.2896 32.4753C20.4336 32.7444 20.7035 33.0762 20.9105 33.2287C21.1084 33.3722 21.3603 33.5336 21.4683 33.5874C21.5763 33.6323 21.7742 33.8117 21.9092 33.9641C22.0352 34.1256 22.1431 34.296 22.1431 34.3498C22.1431 34.3946 22.2421 34.5471 22.3681 34.6816C22.575 34.9058 22.602 35.0135 22.593 35.5605C22.593 35.9103 22.539 36.3318 22.4761 36.5112C22.4221 36.6816 22.1881 36.9955 21.9632 37.2018C21.7382 37.417 21.5403 37.5785 21.5133 37.5785C21.4863 37.5785 21.2794 37.7578 21.0364 37.9821C20.8025 38.2063 20.5865 38.3856 20.5415 38.3856C20.5056 38.3767 20.4246 38.4395 20.3616 38.5202C20.3076 38.5919 20.2176 38.6368 20.1636 38.6099C20.1097 38.583 19.9207 38.7444 19.7317 38.9686C19.5518 39.1928 19.2999 39.3991 19.1739 39.426C19.0479 39.4529 18.769 39.4978 18.544 39.5157C18.3191 39.5426 18.0852 39.5605 18.0222 39.5605C17.9682 39.5516 17.7342 39.5426 17.5093 39.5247C17.2844 39.5157 17.1044 39.4798 17.1044 39.435C17.1044 39.3991 16.9694 39.3184 16.8075 39.2466C16.6545 39.1749 16.4566 39.1211 16.3846 39.13C16.3126 39.13 16.0517 39.0135 15.8087 38.87C15.5658 38.7265 15.3498 38.5561 15.3318 38.4933C15.3229 38.4395 15.2689 38.4036 15.2149 38.4305C15.1609 38.4574 15.0619 38.3677 14.9899 38.2242C14.918 38.0897 14.891 37.9462 14.9269 37.9103C14.9629 37.8655 14.9269 37.8565 14.855 37.8924C14.765 37.9193 14.666 37.8475 14.558 37.6682C14.4771 37.5247 14.4051 37.3543 14.4051 37.3094C14.4051 37.2556 14.4501 37.2287 14.5131 37.2377C14.576 37.2556 14.621 37.148 14.621 36.9776C14.63 36.8251 14.657 36.6637 14.693 36.6188C14.738 36.583 14.72 36.5022 14.666 36.4574C14.612 36.4036 14.594 36.0897 14.63 35.6233C14.657 35.2197 14.702 34.87 14.738 34.852C14.783 34.8341 14.801 34.5919 14.765 33.8117L15.2779 33.3363C15.5568 33.0852 15.8717 32.7892 15.9797 32.6906C16.0787 32.5919 16.2316 32.4126 16.3216 32.287C16.4476 32.0987 16.5645 32.0628 16.9694 32.0359Z" fill="white"/>
<path d="M16.9248 0.179372C17.0507 0.179372 17.2127 0.134529 17.2847 0.0896861C17.3567 0.044843 17.5906 0 17.8065 0C18.0135 0 18.2024 0.044843 18.2294 0.0896861C18.2564 0.143498 18.3824 0.179372 18.5264 0.179372C18.6613 0.179372 18.9403 0.242152 19.1562 0.313901C19.3632 0.38565 19.7411 0.556054 19.993 0.690583C20.2449 0.834081 20.6588 1.16592 20.9198 1.43498C21.1717 1.713 21.4686 2.11659 21.5676 2.33184C21.6756 2.55605 21.8105 2.86099 21.8555 3.00448C21.9095 3.14798 21.9725 3.40807 21.9995 3.56054C22.0355 3.73094 22.0175 3.8565 21.9635 3.8565C21.9095 3.8565 21.8645 3.72197 21.8645 3.56054C21.8525 3.36921 21.8375 3.33931 21.8195 3.47085C21.8015 3.58744 21.7476 3.67713 21.6936 3.67713C21.6396 3.67713 21.6036 3.59641 21.6036 3.49776C21.6036 3.3991 21.5406 3.31839 21.4686 3.31839C21.3787 3.31839 21.3487 3.25859 21.3787 3.13901C21.4056 3.04036 21.3877 2.95964 21.3337 2.95964C21.2797 2.95964 21.2437 2.90583 21.2437 2.85202C21.2437 2.78924 21.0817 2.57399 20.8838 2.37668C20.6858 2.17937 20.3439 1.82063 20.119 1.56951C19.894 1.32735 19.7141 1.06726 19.7141 1.01345C19.7141 0.950673 19.6511 0.896861 19.5791 0.896861C19.5071 0.896861 19.4621 0.932735 19.4891 0.986547C19.5161 1.04036 19.4531 1.0583 19.3542 1.03139C19.2552 1.00448 19.1922 0.959641 19.2192 0.914798C19.2372 0.878924 19.0842 0.798206 18.8773 0.735426C18.6433 0.654709 18.3464 0.636771 18.0945 0.672646C17.8695 0.70852 17.5636 0.726457 17.4196 0.726457C17.2757 0.717489 17.1047 0.753363 17.0417 0.807175C16.9788 0.852018 16.8528 0.887892 16.7718 0.878924C16.6818 0.860987 16.5109 0.923767 16.3849 1.01345C16.2589 1.09417 16.097 1.16592 16.025 1.16592C15.953 1.16592 15.7011 1.31839 15.4761 1.49776C15.2512 1.6861 14.9273 1.93722 14.7653 2.06278C14.6033 2.18834 14.4144 2.34081 14.3424 2.39462C14.2794 2.4574 14.1805 2.50224 14.1175 2.4843C14.0635 2.47534 13.9735 2.55605 13.9195 2.65471C13.8655 2.76233 13.7846 2.88789 13.7396 2.92377C13.7036 2.96861 13.7306 2.84305 13.8205 2.64574C13.9015 2.44843 14.0545 2.16143 14.1535 2.01794C14.2614 1.87444 14.4864 1.59641 14.6663 1.40807C14.8463 1.21076 15.1522 0.950673 15.3502 0.816144C15.5481 0.681614 15.935 0.484305 16.2049 0.376682C16.4749 0.26009 16.7988 0.179372 16.9248 0.179372Z" fill="white"/>
<path d="M21.4866 5.46188C21.5406 5.39013 21.6216 5.21076 21.6666 5.06726C21.7386 4.80717 21.7386 4.80717 21.7926 5.20179C21.8465 5.60538 21.8465 5.60538 21.8555 5.26457C21.8645 5.0852 21.9095 4.93274 21.9635 4.93274C22.0175 4.93274 22.0355 5.0583 21.9995 5.21973C21.9725 5.38117 21.9095 5.64126 21.8555 5.78475C21.8105 5.93722 21.6846 6.21525 21.5946 6.41256C21.4956 6.60987 21.2437 6.96861 21.0367 7.21973C20.8208 7.47085 20.4429 7.79372 20.1999 7.95516C19.957 8.11659 19.5341 8.33184 19.2642 8.43946C18.8683 8.59193 18.5714 8.6278 17.7796 8.6278C16.9878 8.6278 16.6908 8.59193 16.2949 8.43946C16.025 8.33184 15.6471 8.1435 15.4581 8.02691C15.2782 7.90135 15.0622 7.82063 14.9903 7.84753C14.9183 7.87444 14.7923 8.03587 14.7203 8.20628L14.7083 8.23463C14.6359 8.40619 14.5275 8.6629 14.4594 8.80717C14.3874 8.96861 14.2524 9.34529 14.1535 9.64126C14.0545 9.93722 13.8835 10.4843 13.7756 10.852C13.6676 11.2197 13.5506 11.6413 13.5056 11.7937C13.4516 11.9462 13.4156 12.1345 13.4156 12.2152C13.4156 12.3229 13.5956 12.4664 13.9195 12.6188C14.1985 12.7623 14.5314 12.9865 14.6663 13.139C14.8013 13.2915 14.9813 13.5247 15.0532 13.6771C15.1342 13.8296 15.2512 14.0628 15.3052 14.2152C15.4041 14.4664 15.4041 14.4753 15.2512 14.3498C15.1612 14.278 14.9183 14.0448 14.7023 13.8296C14.4864 13.6233 14.2344 13.4529 14.1355 13.4529C14.0365 13.4529 13.7036 13.3274 13.3887 13.1659C12.9568 12.9417 12.7408 12.8789 12.4259 12.9058C12.2009 12.9238 11.913 12.9417 11.7781 12.9417C11.6521 12.9507 11.5621 12.9865 11.5801 13.0224C11.5981 13.0673 11.5081 13.1928 11.3642 13.3184C11.2292 13.435 11.0942 13.5426 11.0492 13.5426C11.0132 13.5426 11.0042 13.4798 11.0312 13.4081C11.0672 13.3094 11.0402 13.2915 10.9323 13.3363C10.8603 13.3812 10.8153 13.4619 10.8423 13.5157C10.8693 13.5785 10.8513 13.6143 10.8063 13.5874C10.7613 13.5605 10.7163 13.6054 10.7163 13.6771C10.7163 13.7489 10.6263 13.8296 10.5094 13.8565C10.4014 13.8744 10.3024 13.8834 10.2844 13.8744C10.2664 13.8655 10.1945 13.9552 10.1315 14.0807C10.0505 14.2152 10.0055 14.2511 9.9965 14.1704C9.9965 14.0987 10.0865 13.8924 10.1855 13.722C10.2934 13.5516 10.4644 13.3184 10.5724 13.2018C10.6713 13.0942 10.7883 13.0045 10.8243 13.0045C10.8693 13.0045 10.8693 13.0583 10.8333 13.1121C10.7973 13.1839 10.8423 13.1749 10.9323 13.0942C11.0492 12.9865 11.0582 12.9507 10.9683 12.9058C10.8963 12.87 11.0492 12.7534 11.3462 12.6188C11.6161 12.4933 12.057 12.3677 12.3089 12.3408C12.5699 12.3139 12.8128 12.2332 12.8488 12.1794C12.8758 12.1166 12.9748 11.7758 13.0647 11.435C13.1547 11.0942 13.2537 10.7085 13.2807 10.583C13.3167 10.4574 13.3707 10.278 13.4066 10.1794C13.4516 10.0807 13.5326 9.83856 13.5956 9.64126C13.6586 9.44395 13.8475 8.92377 14.0275 8.47534C14.1984 8.02691 14.3784 7.62332 14.4234 7.57847C14.4594 7.53363 14.4954 7.43498 14.4954 7.38117C14.4954 7.31839 14.3514 7.04933 14.1805 6.79821C14.0095 6.53812 13.8655 6.29596 13.8655 6.26009C13.8655 6.21525 13.9735 6.24215 14.1085 6.3139C14.2524 6.38565 14.5044 6.50224 14.6753 6.58296C14.8463 6.65471 15.1522 6.86099 15.3502 7.02242C15.5481 7.18386 15.7461 7.44395 15.7911 7.58744C15.827 7.73094 15.989 7.96413 16.142 8.11659C16.2949 8.26906 16.3849 8.32287 16.3309 8.26009C16.2589 8.1435 16.3219 8.13453 16.7448 8.19731C17.0147 8.23318 17.4736 8.27803 17.7706 8.28699C18.1215 8.29596 18.3734 8.25112 18.5354 8.1435C18.6613 8.06278 18.8323 8.01794 18.9043 8.04484C18.9763 8.07175 19.0662 8.04484 19.1022 7.99103C19.1472 7.93722 19.2732 7.89238 19.3992 7.89238C19.5521 7.89238 19.6781 7.81166 19.7771 7.65022C19.858 7.50673 20.092 7.21973 20.2899 7.00448C20.4969 6.78027 20.8208 6.44843 21.0187 6.26009C21.2167 6.07175 21.3787 5.84753 21.3787 5.75785C21.3787 5.65919 21.4236 5.53363 21.4866 5.46188Z" fill="white"/>
<path d="M2.88828 8.38565C3.15821 8.30493 3.41914 8.22421 3.47313 8.20628C3.51812 8.18834 3.91402 8.1704 4.34591 8.1704C4.90377 8.16143 5.29068 8.21525 5.65059 8.33184C5.93852 8.43049 6.33442 8.59193 6.53237 8.70852C6.73032 8.81614 7.12622 9.13901 7.40515 9.40807C7.76506 9.76682 8.017 10.1166 8.25094 10.6278C8.58385 11.3363 8.59285 11.3632 8.59285 12.4215C8.59285 13.4798 8.58385 13.5067 8.25094 14.2152C8.02599 14.6996 7.74706 15.1031 7.40515 15.4529C7.11722 15.7399 6.65834 16.0897 6.37041 16.2332C6.09148 16.3857 5.85754 16.5291 5.85754 16.574C5.86653 16.6099 6.09148 16.9417 6.37941 17.3094C6.65834 17.6771 7.38715 18.4843 7.981 19.1031C9.02474 20.1704 9.08773 20.2152 9.24069 20.0807C9.33966 19.991 9.55561 19.8475 9.72657 19.7578C9.89752 19.6592 10.2844 19.5336 10.5814 19.4619C11.0222 19.3632 11.2022 19.3632 11.5711 19.4529C11.814 19.5157 12.2009 19.6502 12.4169 19.7578C12.6328 19.8655 12.9748 20.1345 13.1817 20.3587C13.4156 20.6188 13.6136 20.9686 13.7216 21.3004C13.8475 21.713 13.8835 21.991 13.8385 22.4664C13.8115 22.87 13.7216 23.2287 13.5776 23.4888C13.4696 23.704 13.2267 24.0179 13.0557 24.1973C12.8848 24.3677 12.5339 24.6099 12.2909 24.7354C11.913 24.9327 11.7241 24.9686 11.0762 24.9596C10.4374 24.9596 10.2394 24.9238 9.86153 24.7354C9.6096 24.6099 9.25869 24.3498 9.06973 24.1614C8.88078 23.9641 8.62884 23.5964 8.50287 23.3453C8.34091 22.9865 8.28693 22.7175 8.28693 22.2691C8.28693 21.9283 8.34091 21.5157 8.4039 21.3363C8.45789 21.1569 8.54786 20.9686 8.58385 20.9327C8.61984 20.8879 8.64684 20.7803 8.64684 20.6996C8.64684 20.6099 8.34091 20.2422 7.96301 19.8924C7.5851 19.5336 6.96426 18.87 6.58635 18.4215C6.20845 17.9731 5.75856 17.3991 5.27268 16.6816L4.73282 16.7354C4.3909 16.7623 3.95901 16.7354 3.53612 16.6457C3.1852 16.565 2.66333 16.4036 2.3934 16.278C2.09648 16.1435 1.67358 15.8296 1.33167 15.4978C0.99875 15.1659 0.665834 14.7265 0.530867 14.4395C0.404899 14.1704 0.269933 13.8655 0.233941 13.7668C0.19795 13.6682 0.125969 13.3812 0.0809797 13.139C0.035991 12.8879 0 12.5919 0 12.4664C0 12.3408 0.035991 12.0179 0.0809797 11.7489C0.134966 11.4798 0.197951 11.1569 0.242939 11.0314C0.27893 10.9058 0.413897 10.6278 0.530867 10.4036C0.656836 10.1794 0.88178 9.84753 1.03474 9.65022C1.1877 9.46188 1.55661 9.13004 1.85354 8.92377C2.15046 8.70852 2.61835 8.46637 2.88828 8.38565Z" fill="white"/>
<path d="M9.81655 15.0493C9.81655 14.8072 9.84354 14.5561 9.87053 14.4843C9.90652 14.4126 9.96051 14.3677 10.0055 14.3946C10.0505 14.4215 10.0595 14.4933 10.0235 14.5561C9.9875 14.6099 9.96051 14.861 9.95151 15.1031C9.95151 15.426 9.9965 15.5695 10.1135 15.6413C10.1945 15.6951 10.2664 15.8117 10.2664 15.9013C10.2664 15.9821 10.3744 16.1256 10.5094 16.2152C10.6533 16.3049 10.9413 16.4305 11.1662 16.4933C11.3912 16.5561 11.7151 16.7175 11.886 16.843C12.111 17.0135 12.3179 17.0852 12.6058 17.1031C12.8308 17.1031 13.1277 17.0673 13.2807 17.0135C13.4246 16.9596 13.6496 16.8251 13.7756 16.7085C13.9375 16.565 14.0995 16.5022 14.3604 16.5112C14.5674 16.5112 14.7473 16.4664 14.7833 16.3946C14.8193 16.3318 14.9363 16.2691 15.0352 16.2601C15.2062 16.2332 15.2062 16.2511 15.0892 16.4843C15.0172 16.6188 14.7833 16.8969 14.5674 17.0942C14.3514 17.3004 14.0545 17.5336 13.9105 17.6054C13.7576 17.6771 13.4156 17.7848 13.1457 17.8475C12.7228 17.9462 12.5609 17.9372 12.021 17.8027C11.6701 17.722 11.2292 17.5426 11.0312 17.3991C10.8333 17.2646 10.5724 17.0224 10.4464 16.852C10.3204 16.6816 10.1675 16.4484 10.1135 16.3229C10.0595 16.1973 9.96951 15.9552 9.91552 15.7848C9.86153 15.6143 9.81655 15.2825 9.81655 15.0493Z" fill="white"/>
<path d="M23.1782 15.6502C23.3222 15.5336 23.6281 15.3632 23.853 15.2556C24.078 15.157 24.2939 15.0673 24.3479 15.0762C24.3929 15.0762 24.3569 15.13 24.2579 15.2018C24.114 15.3004 24.105 15.3274 24.2129 15.3543C24.3029 15.3812 24.2579 15.4439 24.06 15.5695C23.898 15.6592 23.7451 15.8117 23.7181 15.9013C23.6911 15.991 23.6191 16.0359 23.5381 16.009C23.4661 15.9821 23.3402 16 23.2682 16.0538C23.1782 16.1076 23.1512 16.2152 23.1872 16.3408C23.2322 16.5022 23.1782 16.5919 22.9623 16.7444C22.8093 16.861 22.7013 16.9865 22.7283 17.0404C22.7553 17.0942 22.7283 17.148 22.6833 17.1749C22.6293 17.2018 22.6113 17.426 22.6293 17.6861C22.6563 17.9462 22.6743 18.278 22.6743 18.4305C22.6743 18.6278 22.7463 18.7354 22.9263 18.8341C23.0612 18.9058 23.2412 19.0404 23.3312 19.1211C23.4211 19.2108 23.4751 19.3184 23.4481 19.3722C23.4211 19.426 23.4391 19.4619 23.4931 19.4619C23.5381 19.4619 23.6461 19.6054 23.7181 19.7758C23.817 20.0179 23.907 20.0897 24.078 20.0897C24.2039 20.0897 24.3659 20.1614 24.4469 20.2422C24.5729 20.3856 24.5998 20.3856 24.6718 20.2691C24.7348 20.1525 24.7618 20.1614 24.8788 20.3139C24.9958 20.4753 25.0137 20.4843 25.0587 20.3318C25.1037 20.2063 25.1397 20.1973 25.2477 20.287C25.3287 20.3498 25.4096 20.3767 25.4456 20.3318C25.4726 20.296 25.4456 20.2691 25.3737 20.2691C25.3017 20.2601 25.3737 20.1973 25.5176 20.1166C25.6616 20.0359 25.8325 19.9283 25.8775 19.8744C25.9315 19.8206 26.0575 19.5964 26.1565 19.3722C26.2644 19.148 26.3994 18.861 26.4534 18.7175C26.5164 18.565 26.6243 18.4753 26.7323 18.4753C26.8493 18.4753 26.9663 18.3677 27.0562 18.1794C27.1372 18.0269 27.2002 17.7309 27.2002 17.5336C27.1912 17.3363 27.1552 17.0942 27.1282 16.9955C27.0922 16.8969 26.9663 16.7265 26.8493 16.6099C26.7233 16.4933 26.6423 16.3049 26.6423 16.1435C26.6423 15.9641 26.5884 15.8565 26.4804 15.8206C26.3544 15.7758 26.3454 15.7937 26.4354 15.9103C26.4984 15.991 26.5344 16.1076 26.5164 16.1614C26.4984 16.2242 26.4264 16.1435 26.3634 15.9821C26.2914 15.8206 26.2104 15.722 26.1745 15.7578C26.1385 15.7937 26.0845 15.7578 26.0575 15.6682C26.0305 15.5874 25.9495 15.5157 25.8775 15.5157C25.8055 15.5157 25.7426 15.4798 25.7426 15.426C25.7426 15.3722 25.7965 15.3363 25.8505 15.3363C25.9135 15.3274 25.8685 15.2735 25.7426 15.2018C25.6166 15.13 25.5716 15.0762 25.6256 15.0673C25.6886 15.0673 25.9585 15.1659 26.2104 15.2825C26.4984 15.4081 26.8493 15.6771 27.0742 15.9372C27.2902 16.1704 27.5421 16.583 27.6411 16.8341C27.7311 17.0942 27.812 17.5336 27.812 17.8027C27.812 18.0807 27.7311 18.5022 27.6321 18.7623C27.5331 19.0224 27.4521 19.2915 27.4521 19.3453C27.4521 19.4081 27.7851 19.7937 28.1989 20.1973C28.6038 20.6099 29.1797 21.2287 29.4766 21.5785C29.7736 21.9283 30.2054 22.4843 30.8713 23.4081L31.2942 23.3184C31.6271 23.2466 31.906 23.2556 32.4909 23.3722C32.9138 23.4439 33.4716 23.6233 33.7506 23.7758C34.0205 23.9103 34.4254 24.2063 34.6503 24.4126C34.8753 24.6278 35.1812 24.9776 35.3342 25.2018C35.4871 25.426 35.7031 25.8475 35.802 26.1435C35.955 26.5561 36 26.8879 36 27.5785C36 28.2601 35.955 28.6009 35.811 29.0135C35.7031 29.3094 35.4511 29.7848 35.2442 30.0807C35.0372 30.3677 34.6143 30.7982 34.2904 31.0404C33.9215 31.3094 33.4716 31.5426 33.0757 31.6682C32.6528 31.8027 32.2119 31.8655 31.7261 31.8655C31.2222 31.8655 30.8173 31.8027 30.3764 31.6682C30.0255 31.5516 29.5846 31.3543 29.3867 31.2108C29.1887 31.0762 28.8288 30.7713 28.5948 30.5291C28.3429 30.278 28.037 29.8206 27.866 29.4619C27.7041 29.1121 27.5151 28.5561 27.4611 28.2063C27.3802 27.722 27.3802 27.435 27.4611 26.9507C27.5151 26.6009 27.6951 26.0448 27.857 25.6951C28.055 25.2825 28.3339 24.8879 28.6848 24.5471C28.9728 24.2601 29.4226 23.9193 29.6926 23.7848C29.9535 23.6502 30.1875 23.5247 30.2054 23.4978C30.2144 23.4709 29.9715 23.1121 29.6656 22.6906C29.3507 22.2691 28.6668 21.4709 28.136 20.9238C27.6141 20.3677 27.1102 19.9103 27.0202 19.9103C26.9393 19.9013 26.7683 19.9731 26.6423 20.0628C26.5164 20.1525 26.3184 20.2691 26.1925 20.3229C26.0665 20.3767 25.8235 20.4664 25.6526 20.5202C25.4816 20.583 25.1937 20.6278 25.0227 20.6278C24.8518 20.6278 24.5279 20.574 24.3029 20.5022C24.078 20.4395 23.7721 20.3229 23.6281 20.2511C23.4841 20.1704 23.1872 19.9283 22.9713 19.6951C22.7643 19.4709 22.5394 19.1749 22.4674 19.0404C22.4044 18.8969 22.2964 18.565 22.2424 18.296C22.1615 17.9283 22.1615 17.6771 22.2424 17.3094C22.2964 17.0404 22.4674 16.6009 22.6203 16.3408C22.7823 16.0807 23.0342 15.7668 23.1782 15.6502Z" fill="white"/>
<path d="M22.0715 22.4484C22.2334 22.3677 22.5934 22.2511 22.8633 22.1883C23.1332 22.1256 23.5201 22.0987 23.7181 22.1256C23.916 22.1525 24.2759 22.2511 24.5279 22.3408C24.7708 22.4305 25.1217 22.6368 25.2927 22.7982C25.4726 22.9596 25.7066 23.2377 25.8145 23.4081C25.9135 23.5785 26.0665 23.9193 26.1385 24.1704C26.2194 24.4126 26.2824 24.7444 26.2824 24.8879C26.2824 25.0314 26.2374 25.3184 26.1835 25.5157C26.1295 25.713 26.0035 26.0359 25.9135 26.2332C25.8235 26.4305 25.6076 26.7175 25.4546 26.87C25.2927 27.0224 24.9778 27.2556 24.7528 27.3812C24.5279 27.4978 24.114 27.6323 23.817 27.6771C23.5291 27.722 23.2682 27.7937 23.2322 27.8475C23.1962 27.9013 23.1152 28.1614 23.0522 28.4305C22.9893 28.6996 22.8993 29.0493 22.8543 29.1928C22.8093 29.3363 22.6293 29.9013 22.4494 30.4484C22.2694 30.9955 22.0085 31.6771 21.8645 31.9731C21.7206 32.2691 21.6036 32.5919 21.6036 32.6906C21.5946 32.7892 21.6666 32.9327 21.7476 33.0045C21.8285 33.0762 21.9995 33.3363 22.1255 33.5874C22.2514 33.8296 22.3774 34.1614 22.4134 34.3049C22.4494 34.4484 22.5124 34.6547 22.5484 34.7534C22.6113 34.8969 22.5664 34.8789 22.3864 34.6816C22.2514 34.5471 22.1435 34.4036 22.1435 34.3498C22.1435 34.296 22.0355 34.1256 21.9095 33.9731C21.7746 33.8117 21.5766 33.6413 21.4686 33.5874C21.3607 33.5336 21.1087 33.3722 20.9108 33.2287C20.7038 33.0762 20.4339 32.7444 20.2899 32.4753C20.038 32.009 20.02 32 19.6151 31.9821C19.3542 31.9731 19.1472 31.9193 19.0572 31.8206C18.9493 31.704 18.7603 31.6592 18.4274 31.6592C18.0945 31.6502 17.8875 31.704 17.7076 31.8386C17.5456 31.9552 17.3027 32.0269 16.9698 32.0359C16.5649 32.0628 16.4479 32.0987 16.3219 32.287C16.2319 32.4126 16.079 32.5919 15.98 32.6906C15.872 32.7892 15.5571 33.0852 14.7653 33.8117L14.7833 34.3139C14.8013 34.5919 14.7833 34.8341 14.7383 34.852C14.7023 34.87 14.6573 35.2197 14.6303 35.6323C14.5944 36.0897 14.6123 36.4036 14.6663 36.4574C14.7203 36.5112 14.7383 36.583 14.6933 36.6188C14.6573 36.6637 14.6303 36.8251 14.6213 36.9776C14.6213 37.148 14.5764 37.2556 14.5134 37.2466C14.4504 37.2287 14.4054 37.2735 14.4054 37.3363C14.3964 37.3901 14.3424 37.3184 14.2794 37.1749C14.2164 37.0314 14.1085 36.6009 14.0455 36.2332C13.9465 35.6861 13.9465 35.4439 14.0455 34.9327C14.1085 34.583 14.2794 34.0448 14.4414 33.722C14.5944 33.4081 14.8823 32.9596 15.0892 32.7354C15.2872 32.5112 15.6561 32.2063 15.899 32.0448C16.142 31.8834 16.5649 31.6682 16.8348 31.5695C17.2217 31.417 17.5366 31.3722 18.2744 31.3722C19.0932 31.3632 19.3002 31.3991 19.849 31.6054C20.191 31.7399 20.5869 31.9283 20.7218 32.0269C20.8658 32.1166 21.0367 32.1794 21.1087 32.1525C21.1807 32.1256 21.2887 32 21.3427 31.8655C21.3967 31.722 21.4956 31.4888 21.5586 31.3453C21.6306 31.2018 21.8285 30.6547 21.9905 30.1345C22.1615 29.6143 22.3504 29.0135 22.4134 28.7892C22.4674 28.565 22.5484 28.2601 22.6023 28.1166C22.6473 27.9731 22.6833 27.7937 22.6833 27.7399C22.6833 27.6771 22.4674 27.5247 22.2064 27.4081C21.9545 27.2915 21.5856 27.0314 21.3967 26.8251C21.2167 26.6278 20.9738 26.2691 20.8748 26.0359C20.7308 25.713 20.6858 25.426 20.6858 24.8879C20.6858 24.3587 20.7308 24.0628 20.8658 23.7668C20.9648 23.5426 21.2167 23.1928 21.4146 22.9865C21.6216 22.7713 21.9185 22.5291 22.0715 22.4484Z" fill="white"/>
<path d="M21.5406 37.5785C21.5766 37.5785 21.7836 37.4081 21.9905 37.2018C22.1974 36.9955 22.3774 36.87 22.3954 36.9148C22.4134 36.9596 22.3054 37.2377 22.1705 37.5336C22.0355 37.8206 21.7386 38.2601 21.5136 38.5022C21.2887 38.7534 20.9468 39.0583 20.7488 39.1928C20.5509 39.3184 20.164 39.5157 19.894 39.6233C19.6241 39.7399 19.2912 39.8206 19.1472 39.8206C19.0122 39.8206 18.8863 39.8565 18.8593 39.9103C18.8323 39.9641 18.5714 40 18.2744 40C17.9775 40 17.7346 39.9641 17.7346 39.9103C17.7346 39.8565 17.6086 39.8206 17.4646 39.8206C17.3117 39.8206 17.0867 39.7758 16.9428 39.722C16.8078 39.6682 16.5199 39.5336 16.3039 39.426C16.079 39.3274 15.7011 39.0583 15.4581 38.8341C15.2152 38.6099 14.9363 38.3229 14.8463 38.1794C14.6843 37.9552 14.6843 37.9372 14.8283 37.8834C14.9183 37.8565 14.9633 37.8655 14.9273 37.9103C14.8913 37.9462 14.9183 38.0897 14.9903 38.2242C15.0622 38.3677 15.1612 38.4574 15.2152 38.4305C15.2602 38.4036 15.3232 38.4395 15.3322 38.4933C15.3502 38.5561 15.5661 38.7265 15.809 38.87C16.052 39.0135 16.3129 39.13 16.3849 39.13C16.4569 39.1211 16.6548 39.1749 16.8078 39.2466C16.9698 39.3184 17.1047 39.3991 17.1047 39.435C17.1047 39.4798 17.2847 39.5157 17.5096 39.5247C17.7346 39.5426 17.9685 39.5516 18.0225 39.5605C18.0855 39.5605 18.3194 39.5426 18.5444 39.5157C18.7693 39.4978 19.0482 39.4529 19.1742 39.426C19.3002 39.3991 19.5521 39.1928 19.7321 38.9686C19.921 38.7444 20.11 38.583 20.164 38.6099C20.2089 38.6368 20.3079 38.5919 20.3619 38.5202C20.4249 38.4395 20.5059 38.3767 20.5419 38.3857C20.5869 38.3857 20.8028 38.2063 21.0367 37.9821C21.2797 37.7578 21.5046 37.5785 21.5406 37.5785Z" fill="white"/>
<path d="M30.1156 7.97311C30.2596 7.9193 30.4396 7.83858 30.5115 7.80271C30.5835 7.75787 30.9974 7.72199 31.4383 7.72199C32.0322 7.71302 32.3021 7.75787 32.563 7.88343C32.743 7.97311 33.0039 8.2063 33.1299 8.39464C33.2558 8.59195 33.5798 8.95069 33.8407 9.19284C34.1106 9.44397 34.5605 9.87446 34.8484 10.1615C35.2893 10.5919 35.3703 10.7265 35.3793 11.0135C35.3793 11.1928 35.3973 11.2915 35.4243 11.2377C35.4423 11.1749 35.4963 11.1211 35.5503 11.1211C35.6043 11.1211 35.6223 11.1928 35.5953 11.2825C35.5683 11.3632 35.5953 11.4709 35.6403 11.5247C35.7032 11.5785 35.7212 11.7848 35.6852 12.018C35.6582 12.2422 35.6403 12.5112 35.6403 12.6278C35.6403 12.7624 35.5953 12.8072 35.5053 12.7803C35.4063 12.7444 35.3703 12.8072 35.3703 13.0493C35.3703 13.2197 35.3343 13.3632 35.2803 13.3632C35.2264 13.3632 35.1904 13.426 35.1904 13.4978C35.1904 13.5695 35.1364 13.6951 35.0824 13.7758C35.0194 13.8476 34.8395 14.0449 34.6775 14.1973C34.5245 14.3588 34.2096 14.6458 33.9757 14.8431C33.7417 15.0404 33.4808 15.2736 33.3998 15.3543C33.3188 15.435 33.0579 15.5247 32.806 15.5606C32.563 15.5964 32.2301 15.6413 32.0861 15.6592C31.9422 15.6771 31.6363 15.722 31.4113 15.7399C31.1864 15.7668 30.8265 15.7937 30.6195 15.8117C30.4036 15.8206 30.2056 15.8027 30.1876 15.7668C30.1696 15.722 30.0167 15.7041 29.8637 15.722C29.6657 15.734 29.5758 15.7041 29.5938 15.6323C29.6028 15.5695 29.5758 15.5247 29.5308 15.5426C29.4948 15.5516 29.2878 15.3632 29.0809 15.1121C28.8739 14.87 28.658 14.6637 28.604 14.6637C28.55 14.6637 28.3881 14.4843 28.2441 14.2601C28.1091 14.0359 27.9202 13.7399 27.8302 13.5964C27.7492 13.4529 27.6143 13.2736 27.5333 13.1928C27.4613 13.1121 27.3713 12.9597 27.3353 12.852C27.2903 12.7175 27.3173 12.6368 27.3893 12.6099C27.4433 12.5919 27.4973 12.4843 27.4883 12.3677C27.4793 12.2242 27.5423 12.1345 27.6682 12.1076C27.8212 12.0628 27.8662 11.9731 27.8842 11.6592C27.8932 11.435 27.9922 10.9507 28.1091 10.583C28.2801 9.99105 28.3701 9.84755 28.8649 9.35428C29.1799 9.04038 29.4138 8.74441 29.3868 8.69957C29.3598 8.65473 29.4678 8.53814 29.6118 8.45742C29.7647 8.36773 29.8817 8.24217 29.8727 8.17939C29.8637 8.11661 29.9717 8.02692 30.1156 7.97311Z" fill="white"/>
<path d="M3.38331 8.74441C3.58127 8.74441 3.81521 8.69957 3.90518 8.64576C3.99516 8.60092 4.2291 8.57401 4.42705 8.58298C4.61601 8.60092 4.79596 8.65473 4.82296 8.69957C4.85295 8.75936 4.91293 8.75936 5.00291 8.69957C5.09289 8.63679 5.22785 8.64576 5.4348 8.71751C5.58776 8.77132 5.8487 8.91482 5.99266 9.03141C6.14562 9.13903 6.31658 9.23769 6.37957 9.23769C6.43355 9.23769 6.53253 9.33634 6.57752 9.4619C6.6315 9.58746 6.74847 9.70405 6.84745 9.73096C6.94642 9.75787 7.0454 9.85652 7.07239 9.95518C7.09939 10.0538 7.22535 10.1884 7.36932 10.2601C7.51328 10.3408 7.71123 10.583 7.87319 10.9148C8.01716 11.2018 8.14313 11.4709 8.15212 11.5247C8.16112 11.5785 8.21511 11.722 8.26909 11.8655C8.33208 12 8.36807 12.1973 8.36807 12.3139C8.35907 12.4215 8.37707 12.583 8.41306 12.6727C8.44005 12.7534 8.43105 12.8251 8.37707 12.8251C8.33208 12.8251 8.28709 12.9776 8.29609 13.1659C8.30508 13.3453 8.30508 13.5516 8.29609 13.6144C8.28709 13.6682 8.2511 13.7041 8.19711 13.6771C8.15212 13.6502 8.10713 13.731 8.10713 13.8565C8.10713 13.9821 8.07114 14.0807 8.01716 14.0807C7.97217 14.0807 7.93618 14.1704 7.95417 14.287C7.96317 14.4036 7.92718 14.4754 7.86419 14.4664C7.80121 14.4484 7.74722 14.4754 7.74722 14.5292C7.74722 14.583 7.59426 14.6906 7.41431 14.7893C7.22535 14.8789 7.00941 15.0583 6.93743 15.1928C6.84745 15.3453 6.69449 15.444 6.48754 15.4798C6.31658 15.5157 6.07364 15.5516 5.94767 15.5606C5.82171 15.5695 5.49779 15.6144 5.22785 15.6502C4.95792 15.6861 4.67899 15.7489 4.625 15.7937C4.56202 15.8386 4.43605 15.8565 4.35507 15.8296C4.26509 15.8027 4.15712 15.8206 4.10313 15.8655C4.05815 15.9014 3.91418 15.9641 3.78821 15.9911C3.66225 16.018 3.38331 16 3.15837 15.9552C2.93343 15.9103 2.69949 15.8565 2.6455 15.8476C2.58252 15.8386 2.52853 15.8027 2.52853 15.7668C2.52853 15.722 2.45655 15.6682 2.37557 15.6323C2.28559 15.5964 1.93468 15.2825 1.58376 14.9328C1.19686 14.5381 0.935927 14.1884 0.899936 14.0269C0.872943 13.8655 0.899936 13.722 0.971918 13.6592C1.0619 13.5695 1.0619 13.5067 0.989913 13.3902C0.926929 13.2915 0.908934 13.1301 0.953922 12.9597C0.989913 12.8072 1.0259 12.4305 1.01691 12.1076C1.01691 11.7848 1.0439 11.4888 1.09789 11.435C1.15187 11.3812 1.11588 11.2646 0.827954 10.8969L1.11588 10.565C1.26884 10.3857 1.58376 10.0359 1.80871 9.78477C2.03365 9.54262 2.28559 9.33634 2.37557 9.32737C2.45655 9.32737 2.6365 9.20181 2.77147 9.04038C2.96942 8.81616 3.09539 8.75338 3.38331 8.74441Z" fill="white"/>
<path d="M18.6795 10.861C18.8325 10.7534 19.0934 10.6278 19.2643 10.5919C19.4353 10.5471 19.6782 10.5381 19.8042 10.565C19.9302 10.583 20.1101 10.6727 20.2091 10.7624C20.3081 10.852 20.4341 10.9058 20.479 10.8879C20.533 10.861 20.659 10.9328 20.776 11.0314C20.8839 11.1301 20.9739 11.2736 20.9739 11.3453C20.9739 11.4171 21.0549 11.4978 21.1539 11.5247C21.2528 11.5516 21.4238 11.722 21.5318 11.9103C21.6487 12.0897 21.7387 12.2601 21.7387 12.287C21.7387 12.3139 21.7747 12.3857 21.8107 12.4484C21.8467 12.5023 21.8557 12.5919 21.8287 12.6458C21.8017 12.6996 21.8287 12.7982 21.8737 12.87C21.9277 12.9417 21.9367 13.0763 21.9007 13.1659C21.8737 13.2467 21.8557 13.3543 21.8647 13.4081C21.8737 13.4619 21.8557 13.5606 21.8197 13.6323C21.7837 13.7041 21.7387 13.7937 21.7207 13.8386C21.7117 13.8745 21.6937 13.9283 21.6937 13.9731C21.6937 14.009 21.4778 14.1076 21.1989 14.1973C20.785 14.3229 20.668 14.4036 20.506 14.7085C20.3891 14.9148 20.2181 15.0942 20.1191 15.1301C20.0202 15.157 19.7232 15.1928 19.4713 15.2108C19.2104 15.2287 18.9944 15.2197 18.9944 15.1839C18.9944 15.139 18.8414 14.9328 18.6615 14.7175C18.3826 14.4036 18.2746 14.3408 18.0946 14.3767C17.9417 14.4036 17.7797 14.3498 17.5818 14.1794C17.4198 14.0538 17.2848 13.8924 17.2848 13.8386C17.2848 13.7758 17.2488 13.7399 17.1949 13.7668C17.1499 13.7937 17.0419 13.722 16.9699 13.6144C16.8889 13.4888 16.835 13.2018 16.835 12.8969C16.835 12.6099 16.8979 12.2601 16.9699 12.1076C17.0419 11.9552 17.2578 11.7399 17.4468 11.6144C17.6268 11.4888 17.8697 11.3902 17.9867 11.3902C18.0946 11.3902 18.2386 11.3184 18.3016 11.2287C18.3556 11.139 18.5355 10.9776 18.6795 10.861Z" fill="white"/>
<path d="M10.3746 20.2691C10.5365 20.1435 10.7525 20.018 10.8514 19.991C10.9504 19.9552 11.1304 19.9552 11.2563 19.9731C11.3823 20 11.6073 20.0718 11.7512 20.1525C11.9042 20.2242 12.1021 20.3946 12.2011 20.5381C12.3091 20.6906 12.525 20.8341 12.723 20.8879C12.9029 20.9417 13.1549 21.0852 13.2808 21.2108C13.4248 21.3543 13.5058 21.5337 13.5058 21.7041C13.5058 21.8565 13.5418 21.9552 13.5958 21.9283C13.6497 21.9014 13.7037 21.991 13.7307 22.1345C13.7487 22.2691 13.7397 22.5381 13.7127 22.7354C13.6767 22.9686 13.5688 23.1659 13.4248 23.2915C13.2988 23.3991 13.1639 23.4709 13.1279 23.444C13.0829 23.426 13.0559 23.4619 13.0559 23.5247C13.0559 23.5785 13.0379 23.6054 13.0109 23.5695C12.9839 23.5247 12.804 23.5964 12.606 23.722C12.4081 23.8476 12.1381 24.0718 12.0032 24.2242C11.7782 24.4754 11.6882 24.5112 11.1664 24.5381C10.8425 24.5561 10.4735 24.5202 10.3296 24.4574C10.1946 24.3946 10.0776 24.296 10.0866 24.2422C10.0866 24.1794 10.0057 24.1076 9.90668 24.0807C9.79871 24.0538 9.72673 23.9641 9.72673 23.8565C9.72673 23.7489 9.67274 23.6861 9.60076 23.7041C9.52878 23.713 9.35782 23.5964 9.21386 23.4529C9.07889 23.3094 8.90793 23.0224 8.85395 22.8251C8.79096 22.6278 8.72798 22.3229 8.70998 22.1525C8.69199 21.9821 8.68299 21.7937 8.70099 21.731C8.72798 21.6771 8.96192 21.5247 9.23185 21.3991C9.51078 21.2646 9.72673 21.1032 9.72673 21.0314C9.72673 20.9597 9.80771 20.861 9.90668 20.8072C10.0057 20.7534 10.0866 20.6637 10.0866 20.6099C10.0866 20.5471 10.2126 20.3946 10.3746 20.2691Z" fill="white"/>
<path d="M22.5485 23.139C22.6205 23.139 22.7285 23.0583 22.7825 22.9597C22.8544 22.8162 22.9534 22.7803 23.2324 22.7982C23.4303 22.8072 23.5923 22.852 23.5833 22.8879C23.5833 22.9238 23.6552 22.9507 23.7452 22.9417C23.8262 22.9417 24.0511 23.0224 24.2401 23.1211C24.4201 23.2287 24.573 23.3543 24.573 23.4081C24.573 23.4619 24.618 23.4978 24.663 23.4978C24.717 23.4978 24.8609 23.5875 24.9869 23.7041C25.1219 23.8117 25.3108 23.9911 25.4188 24.0987C25.5178 24.1973 25.6527 24.3408 25.6977 24.4126C25.7517 24.4754 25.7787 24.6099 25.7787 24.7085C25.7697 24.8072 25.7607 24.9148 25.7517 24.9597C25.7427 24.9955 25.7427 25.0404 25.7427 25.0673C25.7427 25.0942 25.6797 25.2377 25.6078 25.3812C25.5358 25.5247 25.4908 25.6502 25.5178 25.6502C25.5448 25.6502 25.5358 25.7041 25.4998 25.7668C25.4638 25.8206 25.4278 25.9372 25.4278 26.009C25.4278 26.0807 25.2928 26.1794 25.1309 26.2332C24.9689 26.287 24.825 26.3857 24.798 26.4574C24.78 26.5292 24.6 26.7265 24.3931 26.8879C24.1951 27.0404 24.0152 27.139 23.9882 27.0852C23.9612 27.0314 23.8532 27.0135 23.7452 27.0404C23.6283 27.0673 23.2144 26.9866 22.8185 26.861C22.4226 26.7354 21.9907 26.6368 21.8557 26.6368C21.6308 26.6368 21.6038 26.6099 21.6308 26.3946C21.6577 26.1973 21.5948 26.0807 21.3428 25.8565C21.1629 25.6951 20.9919 25.5875 20.9559 25.6054C20.9109 25.6323 20.9199 25.4978 20.9739 25.3184C21.0189 25.1301 21.0549 24.852 21.0549 24.7085C21.0549 24.565 21.1179 24.3857 21.1989 24.3319C21.2708 24.2691 21.3158 24.1794 21.2888 24.1256C21.2618 24.0718 21.2708 24.0359 21.3158 24.0359C21.3518 24.0359 21.4778 23.9462 21.6038 23.8296C21.7297 23.722 21.9367 23.5785 22.0806 23.5157C22.2156 23.4619 22.3416 23.3453 22.3686 23.2736C22.3956 23.2018 22.4765 23.139 22.5485 23.139Z" fill="white"/>
<path d="M30.5565 24.3767C31.1414 24.305 31.3123 24.2511 31.4563 24.0807C31.6093 23.9103 31.6992 23.8834 32.0411 23.9103C32.2661 23.9283 32.536 23.9731 32.653 23.9911C32.761 24.018 32.9229 24 33.0129 23.9552C33.1209 23.8924 33.2289 23.9193 33.3998 24.0628C33.5258 24.1704 33.6967 24.2511 33.7777 24.2422C33.8587 24.2242 33.9487 24.287 33.9757 24.3767C33.9937 24.4574 34.2186 24.7624 34.4705 25.0493C34.7135 25.3274 34.9204 25.6144 34.9204 25.6771C34.9204 25.731 35.0104 25.8386 35.1184 25.9014C35.2623 25.9731 35.3613 26.1615 35.4513 26.5292C35.5233 26.8072 35.5863 27.2825 35.5953 27.5785C35.6043 27.8745 35.5773 28.305 35.5323 28.5471C35.4963 28.7803 35.4063 29.0314 35.3343 29.1032C35.2623 29.1749 35.1634 29.2377 35.1094 29.2377C35.0554 29.2377 35.0104 29.3005 35.0104 29.3722C35.0104 29.444 34.9744 29.5067 34.9204 29.5067C34.8754 29.5067 34.8035 29.5964 34.7675 29.713C34.7315 29.8206 34.7135 29.9372 34.7225 29.9821C34.7315 30.018 34.7045 30.0269 34.6505 30C34.6055 29.9731 34.4076 30.1166 34.2276 30.3139C34.0387 30.5112 33.8497 30.6727 33.7957 30.6727C33.7507 30.6816 33.6158 30.7803 33.5078 30.8969C33.3278 31.0942 33.2648 31.1121 33.0579 31.0314C32.9139 30.9776 32.689 30.9507 32.536 30.9686C32.3921 30.9866 32.2031 31.0314 32.1311 31.0763C32.0591 31.1211 31.9242 31.1749 31.8432 31.1839C31.7532 31.2018 31.5733 31.157 31.4383 31.0942C31.2943 31.0314 31.1234 30.9776 31.0514 30.9866C30.9794 30.9955 30.8265 30.9686 30.7185 30.9238C30.6015 30.8879 30.4395 30.8879 30.3586 30.9417C30.2416 31.0045 30.1336 30.9776 29.9807 30.87C29.8637 30.7893 29.5668 30.5292 29.3058 30.287C29.0539 30.0538 28.82 29.8655 28.784 29.8655C28.739 29.8655 28.712 29.8117 28.712 29.7579C28.721 29.6951 28.649 29.5695 28.559 29.4798C28.469 29.3991 28.3611 29.3543 28.3161 29.3902C28.2711 29.435 28.2621 29.3722 28.2981 29.2646C28.3251 29.148 28.3161 29.0404 28.2621 29.0135C28.2171 28.9866 28.1721 28.8789 28.1721 28.7713C28.1721 28.6547 28.1271 28.5112 28.0641 28.4485C27.9832 28.3767 27.9472 28.0628 27.9472 27.5785C27.9472 27.0942 27.9832 26.7803 28.0641 26.7085C28.1271 26.6458 28.1721 26.5023 28.1721 26.3946C28.1721 26.278 28.2171 26.1704 28.2621 26.1435C28.3161 26.1166 28.3431 26.0449 28.3251 25.991C28.3071 25.9283 28.514 25.6771 28.775 25.426C29.0359 25.1839 29.2518 24.9417 29.2518 24.8879C29.2518 24.8341 29.3778 24.7175 29.5398 24.6278C29.7107 24.5292 30.1426 24.4215 30.5565 24.3767Z" fill="white"/>
<path d="M4.22011 24.1615C4.35507 24.1076 4.35507 24.0897 4.2381 24.0269C4.12113 23.9641 4.13013 23.9462 4.26509 23.9462C4.34607 23.9462 4.41806 23.9821 4.41806 24.0359C4.41806 24.0897 4.49904 24.1256 4.59801 24.1256C4.69699 24.1256 4.75997 24.0897 4.73298 24.0359C4.70598 23.9821 4.76897 23.9462 4.86794 23.9462C4.96692 23.9462 5.0389 24 5.0299 24.0628C5.01191 24.1256 5.11988 24.1884 5.27284 24.2063C5.4258 24.2242 5.62375 24.296 5.72273 24.3588C5.82171 24.4305 5.98366 24.4574 6.08264 24.4305C6.18162 24.3946 6.2356 24.3946 6.19961 24.4215C6.15462 24.4574 6.39756 24.7175 6.72148 25.0045C7.0544 25.2825 7.63925 25.8386 8.02615 26.2332C8.42206 26.6278 8.74597 27.0404 8.75497 27.157C8.77297 27.2915 8.72798 27.3722 8.60201 27.4081C8.47604 27.444 8.43105 27.5157 8.44905 27.6771C8.46105 27.8206 8.42206 27.8924 8.33208 27.8924C8.2601 27.8924 8.17912 27.9821 8.16112 28.0987C8.13413 28.2063 8.09814 28.5023 8.08014 28.7444C8.05315 28.9955 7.94517 29.435 7.8462 29.731C7.71123 30.1166 7.54028 30.3767 7.25235 30.6547C7.0274 30.861 6.84745 31.0673 6.84745 31.1211C6.84745 31.1749 6.81146 31.2108 6.75747 31.2108C6.71248 31.2108 6.66749 31.2467 6.66749 31.3005C6.66749 31.3543 6.50553 31.5516 6.30758 31.7489C6.10963 31.9462 5.86669 32.1076 5.76772 32.1076C5.66874 32.1076 5.56977 32.1435 5.54278 32.1973C5.51578 32.2511 5.11088 32.287 4.59801 32.287C4.08514 32.287 3.68024 32.2511 3.65325 32.1973C3.62625 32.1435 3.50928 32.1076 3.38331 32.1076C3.25735 32.1076 3.14038 32.0718 3.11338 32.018C3.08639 31.9641 2.98741 31.9283 2.88844 31.9283C2.78946 31.9283 2.69049 31.8655 2.66349 31.7937C2.6365 31.722 2.6365 31.6233 2.66349 31.5695C2.69049 31.5157 2.68149 31.4798 2.6455 31.4798C2.60051 31.4798 2.45655 31.3722 2.30358 31.2377C2.15962 31.0942 2.02465 30.9238 2.00666 30.852C1.98866 30.7803 1.92568 30.6996 1.87169 30.6816C1.80871 30.6547 1.68274 30.5561 1.58376 30.4485C1.48479 30.3498 1.29584 30.1345 1.16087 29.9731C1.01691 29.8117 0.908934 29.6233 0.908934 29.5516C0.908934 29.4798 0.827954 29.3991 0.728979 29.3722C0.594012 29.3363 0.52203 29.2018 0.450048 28.8162C0.396062 28.5292 0.369069 28.0628 0.40506 27.7848C0.432053 27.4978 0.531028 27.1301 0.621006 26.9597C0.701985 26.7982 0.926929 26.5292 1.11588 26.3767C1.29584 26.2242 1.4308 26.0628 1.40381 26.009C1.37682 25.9552 1.38581 25.9283 1.4308 25.9372C1.46679 25.9552 1.74572 25.722 2.05165 25.426C2.36657 25.1301 2.67249 24.8341 2.75347 24.7803C2.82545 24.7175 2.92443 24.6009 2.96042 24.5292C3.00541 24.4574 3.14038 24.3857 3.27534 24.3767C3.41031 24.3588 3.51828 24.3229 3.51828 24.287C3.51828 24.2422 3.64425 24.2153 3.78821 24.2153C3.94118 24.2153 4.13013 24.1884 4.22011 24.1615Z" fill="white"/>
<path d="M15.3323 25.3274C15.4403 25.1928 15.6113 24.9955 15.7192 24.8879C15.8722 24.7265 16.0072 24.6906 16.502 24.6816C17.0959 24.6637 17.1049 24.6637 17.4198 25.0224C17.6627 25.3005 17.7797 25.3722 17.9417 25.3274C18.0946 25.2915 18.1936 25.3453 18.3916 25.5964C18.5265 25.7758 18.6795 25.9193 18.7245 25.9193C18.7785 25.9193 18.8774 25.9821 18.9494 26.0538C19.0214 26.1256 19.0844 26.2422 19.0844 26.305C19.0844 26.3588 19.1294 26.4485 19.1834 26.5023C19.2374 26.5561 19.2643 26.8341 19.2463 27.1928C19.2284 27.6323 19.1654 27.8565 19.0214 28.0449C18.9224 28.1794 18.7875 28.287 18.7335 28.278C18.6795 28.2601 18.6345 28.3139 18.6345 28.3857C18.6345 28.4574 18.5625 28.5561 18.4815 28.6009C18.3916 28.6368 18.2836 28.6637 18.2296 28.6368C18.1846 28.6189 18.0496 28.6906 17.9417 28.7893C17.8247 28.8879 17.7347 29.0224 17.7347 29.0852C17.7347 29.139 17.6358 29.2467 17.5098 29.3094C17.3838 29.3632 17.1949 29.4171 17.0869 29.4171C16.9699 29.4171 16.817 29.4619 16.745 29.5067C16.637 29.5785 16.655 29.5964 16.835 29.5964C16.9609 29.5964 17.0149 29.6323 16.9699 29.6771C16.9159 29.713 16.772 29.7758 16.637 29.8117C16.448 29.8565 16.3761 29.8296 16.3401 29.713C16.3131 29.6233 16.0791 29.4709 15.8182 29.3632C15.5033 29.2377 15.3053 29.0942 15.2154 28.9148C15.1344 28.7713 14.9184 28.5023 14.7205 28.3139C14.5225 28.1256 14.3426 27.9821 14.3156 27.9821C14.2886 27.9821 14.2436 27.7937 14.2076 27.5606C14.1626 27.2915 14.0546 27.0404 13.9107 26.8879C13.7847 26.7444 13.7307 26.6189 13.7757 26.5919C13.8297 26.565 13.8657 26.4664 13.8657 26.3677C13.8657 26.2691 13.9107 26.1884 13.9557 26.1884C14.0097 26.1884 14.0187 26.2601 13.9827 26.3498C13.9557 26.4305 13.9557 26.4843 13.9827 26.4574C14.0187 26.4305 14.0546 26.3408 14.0726 26.2511C14.0816 26.1615 14.1176 26.0987 14.1626 26.0987C14.1986 26.0987 14.3606 25.9821 14.5225 25.8296C14.6755 25.6861 14.8824 25.5606 14.9724 25.5606C15.0534 25.5606 15.2154 25.4529 15.3323 25.3274Z" fill="white"/>
<path fill-rule="evenodd" clip-rule="evenodd" d="M9.68162 4.07177C9.83458 4.0897 10.1045 4.17939 10.2935 4.26908C10.4914 4.36773 10.6984 4.52917 10.7703 4.64576C10.8423 4.75338 10.9413 5.01347 10.9953 5.22872C11.0853 5.56056 11.0763 5.65024 10.8873 6.04486C10.7703 6.28701 10.5544 6.56504 10.4014 6.66369C10.2125 6.79822 9.97855 6.85204 9.63663 6.85204C9.27672 6.861 9.06977 6.80719 8.87182 6.67266C8.71886 6.56504 8.52091 6.36773 8.43093 6.22423C8.31396 6.04486 8.25098 5.80271 8.25098 5.47087C8.25098 5.11212 8.30497 4.89688 8.43993 4.69957C8.5479 4.53813 8.80884 4.33186 9.02479 4.22423C9.24073 4.11661 9.52866 4.05383 9.68162 4.07177ZM26.5074 4.07177C26.6514 4.0897 26.9213 4.17042 27.0923 4.25114C27.2632 4.33186 27.4972 4.53813 27.6141 4.70854C27.7491 4.92378 27.8121 5.15697 27.8121 5.47087C27.8121 5.72199 27.7491 6.03589 27.6771 6.18836C27.6051 6.34082 27.4072 6.5471 27.2542 6.65473C27.0383 6.79822 26.8133 6.85204 26.4534 6.85204C26.0395 6.861 25.8956 6.81616 25.6256 6.61885C25.4457 6.47535 25.2297 6.21526 25.1578 6.03589C25.0768 5.84755 25.0228 5.56952 25.0228 5.42603C25.0228 5.28253 25.1218 4.99553 25.2387 4.79822C25.3737 4.57401 25.5896 4.36773 25.8416 4.24217C26.0755 4.11661 26.3455 4.05383 26.5074 4.07177ZM32.4459 7.75786C32.5449 7.79374 32.7249 7.84755 32.8508 7.89239C32.9768 7.92827 33.2917 8.0628 33.5527 8.19733C33.8046 8.32289 34.2455 8.65473 34.5154 8.92378C34.7853 9.19284 35.1003 9.58746 35.2082 9.80271C35.3252 10.009 35.4422 10.278 35.4872 10.4036C35.5322 10.5292 35.6221 10.852 35.6851 11.1211C35.7571 11.3902 35.8111 11.7758 35.8111 11.9731C35.8111 12.1704 35.7571 12.574 35.6851 12.87C35.6131 13.1659 35.4332 13.6502 35.2892 13.9462C35.1453 14.2422 34.8123 14.7085 34.5424 14.9776C34.2275 15.3005 33.8226 15.5875 33.3907 15.7937C33.0218 15.9821 32.4369 16.1704 32.086 16.2332C31.5821 16.3229 31.3302 16.3229 30.8263 16.2332C30.4754 16.1704 29.9356 15.991 29.6116 15.8386C29.2877 15.6861 28.7838 15.3363 28.4869 15.0583C28.127 14.7265 27.8481 14.3588 27.6681 13.9821C27.5152 13.6682 27.3442 13.2646 27.2902 13.0942C27.2272 12.9238 27.1822 12.4305 27.1822 11.2108L26.5344 11.2556C26.1745 11.2825 25.7156 11.3453 25.5177 11.3812C25.3197 11.426 24.9328 11.5067 24.6629 11.5695C24.3929 11.6233 23.7721 11.7668 23.2952 11.8924C22.8093 12.009 22.4134 12.1345 22.4134 12.1704C22.4044 12.2153 22.3954 12.5471 22.3864 12.9148C22.3774 13.4171 22.3145 13.713 22.1435 14.0807C22.0085 14.3498 21.7836 14.6906 21.6306 14.8431C21.4777 14.9955 21.1358 15.2287 20.8748 15.3722C20.4429 15.6054 20.299 15.6413 19.6241 15.6413C18.9853 15.6413 18.7873 15.6054 18.4094 15.4171C18.1665 15.2915 17.8606 15.1121 17.7526 15.0135C17.6356 14.9238 17.4287 14.6816 17.2937 14.4843C17.1588 14.287 17.0238 14.0449 16.9968 13.9462C16.9698 13.8476 16.9158 13.6861 16.8798 13.5875C16.8258 13.435 16.8348 13.435 16.9608 13.6054C17.0418 13.722 17.1408 13.7937 17.1947 13.7668C17.2487 13.7399 17.2847 13.7758 17.2847 13.8296C17.2847 13.8924 17.4197 14.0538 17.5816 14.1794C17.7796 14.3498 17.9416 14.4036 18.0945 14.3767C18.2745 14.3408 18.3824 14.4036 18.6614 14.7175C18.8413 14.9328 18.9943 15.139 18.9943 15.1749C18.9943 15.2197 19.2102 15.2287 19.4712 15.2108C19.7231 15.1928 20.029 15.157 20.146 15.1211C20.254 15.0942 20.4249 14.9148 20.5239 14.7085C20.6769 14.4036 20.7758 14.3229 21.1987 14.1884C21.4777 14.1076 21.6936 14.009 21.6936 13.9641C21.6936 13.9283 21.7116 13.8745 21.7206 13.8296C21.7386 13.7937 21.7836 13.7041 21.8196 13.6323C21.8556 13.5606 21.8736 13.4619 21.8646 13.4081C21.8556 13.3543 21.8736 13.2467 21.9006 13.157C21.9366 13.0763 21.9276 12.9417 21.8736 12.87C21.8196 12.7982 21.8016 12.6996 21.8286 12.6458C21.8556 12.5919 21.8196 12.4933 21.7656 12.4036C21.7026 12.3229 21.6666 12.2511 21.6936 12.2511C21.7206 12.2422 21.6486 12.0897 21.5317 11.9014C21.4237 11.722 21.2527 11.5516 21.1538 11.5247C21.0548 11.4978 20.9738 11.4171 20.9738 11.3453C20.9738 11.2736 20.8838 11.1301 20.7758 11.0314C20.6589 10.9328 20.5329 10.861 20.4789 10.8879C20.4249 10.9058 20.299 10.8341 20.182 10.7265C20.029 10.5919 19.8671 10.5381 19.5971 10.5471C19.3902 10.5561 19.1023 10.6189 18.9493 10.6906C18.7963 10.7713 18.5624 10.9507 18.4094 11.1121C18.2565 11.2646 18.0585 11.3902 17.9596 11.3902C17.8606 11.3902 17.6446 11.4709 17.4917 11.5695C17.2757 11.6951 17.2127 11.7937 17.2487 11.9014C17.2937 12.0359 17.2847 12.0359 17.2127 11.9283C17.1408 11.8206 17.0958 11.8386 16.9788 12.0628C16.9068 12.2153 16.8438 12.3049 16.8348 12.2601C16.8348 12.2242 16.9338 11.9821 17.0508 11.722C17.1767 11.4709 17.4287 11.1121 17.6176 10.9238C17.8066 10.7444 18.1035 10.5202 18.2745 10.4305C18.4454 10.3319 18.8143 10.2063 19.0843 10.1435C19.4892 10.0449 19.6691 10.0449 20.074 10.1345C20.344 10.1973 20.7668 10.3498 21.0008 10.4843C21.2437 10.6099 21.5587 10.852 21.7026 11.0045C21.8466 11.1659 21.9636 11.3274 21.9636 11.3632C21.9546 11.4081 22.0085 11.4888 22.0715 11.5516C22.1615 11.6413 22.2695 11.6323 22.5934 11.5336C22.8183 11.4619 23.3672 11.3184 23.8081 11.2197C24.249 11.1121 24.7798 10.9866 24.9778 10.9417C25.1757 10.8969 25.6796 10.8251 26.1025 10.7713C26.5254 10.7175 26.9663 10.6637 27.0833 10.6458C27.2452 10.6368 27.3712 10.4843 27.6321 10C27.8211 9.65921 28.172 9.16594 28.4149 8.92378C28.6579 8.67266 29.1078 8.34082 29.4137 8.17939C29.7196 8.02692 30.0255 7.89239 30.0885 7.89239C30.1425 7.89239 30.1245 7.93724 30.0435 7.98208C29.9536 8.03589 29.8816 8.12558 29.8816 8.17939C29.8816 8.24217 29.7646 8.36773 29.6116 8.44845C29.4677 8.53813 29.3597 8.65473 29.3867 8.69957C29.4137 8.74441 29.1797 9.04038 28.8648 9.34531C28.37 9.84755 28.28 9.99105 28.109 10.583C27.992 10.9507 27.8931 11.435 27.8841 11.6592C27.8661 11.9731 27.8211 12.0628 27.6681 12.1076C27.5422 12.1345 27.4792 12.2242 27.4882 12.3677C27.4972 12.4843 27.4432 12.5919 27.3892 12.6099C27.3172 12.6368 27.2902 12.7175 27.3352 12.8431C27.3712 12.9597 27.4612 13.1121 27.5332 13.1928C27.6141 13.2736 27.7491 13.4529 27.8301 13.5964C27.9201 13.7399 28.109 14.0359 28.244 14.2601C28.3879 14.4843 28.5499 14.6637 28.6039 14.6637C28.6579 14.6637 28.8738 14.861 29.0808 15.1121C29.2877 15.3543 29.4947 15.5516 29.5307 15.5336C29.5756 15.5247 29.6026 15.5695 29.5936 15.6233C29.5756 15.7011 29.6656 15.731 29.8636 15.713C30.0165 15.7041 30.1695 15.722 30.1875 15.7579C30.2055 15.8027 30.4034 15.8206 30.6194 15.8117C30.8263 15.7937 31.1862 15.7668 31.4112 15.7399C31.6361 15.722 31.9421 15.6771 32.086 15.6592C32.23 15.6413 32.5629 15.5964 32.8058 15.5606C33.0578 15.5247 33.3187 15.435 33.3997 15.3543C33.4807 15.2736 33.7416 15.0404 33.9755 14.8431C34.2095 14.6458 34.5244 14.3588 34.6774 14.1973C34.8393 14.0449 35.0193 13.8476 35.0823 13.7758C35.1363 13.6951 35.1902 13.5695 35.1902 13.4978C35.1902 13.426 35.2262 13.3632 35.2802 13.3632C35.3342 13.3632 35.3702 13.2197 35.3702 13.0493C35.3702 12.8072 35.4062 12.7444 35.5052 12.7803C35.5951 12.8072 35.6401 12.7623 35.6401 12.6189C35.6401 12.5112 35.6581 12.2422 35.6851 12.018C35.7211 11.7848 35.7031 11.5785 35.6401 11.5247C35.5951 11.4709 35.5681 11.3632 35.5951 11.2736C35.6221 11.1928 35.6041 11.1211 35.5502 11.1211C35.4962 11.1211 35.4422 11.1749 35.4242 11.2287C35.3972 11.2915 35.3792 11.1928 35.3792 11.0045C35.3702 10.7265 35.2892 10.5919 34.8483 10.1525C34.5604 9.87446 34.1105 9.43499 33.8406 9.19284C33.5796 8.94172 33.2557 8.59195 33.1298 8.39464C33.0038 8.2063 32.7519 7.97311 32.5809 7.87446C32.4099 7.78477 32.347 7.73096 32.4459 7.75786ZM25.0228 15.2467C25.4637 15.2467 25.6526 15.2736 25.5627 15.3274C25.4907 15.3722 25.2027 15.3902 24.9328 15.3722C24.6629 15.3453 24.4199 15.3094 24.3929 15.2825C24.3659 15.2646 24.6539 15.2467 25.0228 15.2467ZM2.25848 18.6278C2.42943 18.6547 2.68137 18.7265 2.82533 18.7982C2.9603 18.87 3.14026 19.0314 3.23923 19.1659C3.32921 19.3094 3.43718 19.5336 3.46418 19.6861C3.50017 19.8386 3.50017 20.1166 3.45518 20.3139C3.41919 20.5202 3.27522 20.7893 3.11326 20.9507C2.9693 21.1121 2.66338 21.2825 2.43843 21.3453C2.10551 21.444 1.97055 21.444 1.67362 21.3453C1.47567 21.2825 1.21474 21.1211 1.08877 20.9955C0.9628 20.861 0.809839 20.583 0.755852 20.3767C0.665874 20.0718 0.665874 19.9283 0.755852 19.6233C0.809839 19.4171 0.9628 19.148 1.09777 19.0224C1.22374 18.8969 1.46667 18.7444 1.63763 18.6816C1.79959 18.6278 2.08752 18.6009 2.25848 18.6278ZM34.0205 18.574C34.0925 18.574 34.3175 18.6458 34.5154 18.7265C34.7134 18.8162 34.9653 19.0135 35.0823 19.157C35.1902 19.3005 35.3072 19.5606 35.3342 19.731C35.3702 19.9014 35.3612 20.1794 35.3342 20.3319C35.3072 20.4933 35.1453 20.7713 34.9923 20.9507C34.8033 21.148 34.5604 21.3005 34.3355 21.3632C34.0655 21.426 33.8676 21.4171 33.5796 21.3274C33.3457 21.2646 33.0758 21.0852 32.9228 20.9148C32.7878 20.7623 32.6439 20.4754 32.6169 20.287C32.5899 20.1076 32.5899 19.8206 32.6169 19.6592C32.6439 19.5067 32.7789 19.2467 32.9228 19.1032C33.0578 18.9507 33.3277 18.7713 33.5257 18.6996C33.7236 18.6278 33.9486 18.574 34.0205 18.574ZM4.50791 23.6861C4.5799 23.6861 4.93081 23.731 5.27272 23.8027C5.62364 23.8655 5.98355 23.9552 6.08252 23.991C6.1815 24.0269 6.44243 24.1435 6.66737 24.2422C6.88332 24.3498 7.28822 24.6458 7.56715 24.8969C7.87307 25.1839 8.18799 25.5964 8.40394 26C8.5839 26.3498 8.73686 26.7085 8.73686 26.7893C8.74586 26.8969 8.48492 26.6906 8.03503 26.2332C7.63913 25.8386 7.05428 25.2825 6.72136 24.9955C6.39744 24.7175 6.1545 24.4574 6.19949 24.4215C6.23548 24.3946 6.1815 24.3946 6.08252 24.4305C5.98355 24.4574 5.82159 24.4305 5.72261 24.3588C5.62364 24.296 5.42568 24.2242 5.27272 24.2063C5.11976 24.1884 5.01179 24.1256 5.02978 24.0538C5.03878 24 4.9668 23.9462 4.86782 23.9462C4.76885 23.9462 4.70586 23.9821 4.73286 24.0359C4.75985 24.0897 4.69687 24.1256 4.59789 24.1256C4.49892 24.1256 4.41794 24.0897 4.41794 24.0359C4.41794 23.9821 4.34595 23.9462 4.26497 23.9462C4.13001 23.9462 4.12101 23.9641 4.23798 24.0269C4.35495 24.0897 4.35495 24.1076 4.21999 24.1615C4.13001 24.1884 3.94106 24.2153 3.78809 24.2153C3.64413 24.2153 3.51816 24.2422 3.51816 24.278C3.51816 24.3229 3.41019 24.3588 3.27522 24.3767C3.13126 24.3857 2.99629 24.4574 2.9603 24.5292C2.91531 24.6009 2.82533 24.7175 2.75335 24.7713C2.67237 24.8341 2.36645 25.1301 2.05153 25.426C1.7456 25.722 1.46667 25.9552 1.43068 25.9372C1.38569 25.9283 1.3767 25.9552 1.40369 26.009C1.43068 26.0628 1.29572 26.2242 1.11576 26.3767C0.926809 26.5292 0.692868 26.8072 0.593892 26.9866C0.458926 27.2377 0.422935 27.4888 0.413937 28.1345C0.413937 28.5919 0.386944 28.8969 0.350953 28.8072C0.314962 28.7265 0.287969 28.4036 0.287969 28.0897C0.278971 27.7848 0.341955 27.3005 0.413937 27.0135C0.494917 26.7354 0.665874 26.278 0.800841 26.009C0.935807 25.7399 1.26872 25.2915 1.53866 25.0224C1.81759 24.7444 2.29447 24.3946 2.61839 24.2332C2.94231 24.0718 3.46417 23.8834 3.78809 23.8206C4.11201 23.7489 4.43593 23.6951 4.50791 23.6861ZM16.7898 24.3677C17.0418 24.3946 17.4467 24.5023 17.6896 24.6189C17.9416 24.7354 18.2475 24.9238 18.3734 25.0404C18.4994 25.148 18.7154 25.4171 18.8413 25.6233C18.9763 25.8386 19.0573 26.0359 19.0303 26.0718C18.9943 26.1166 18.9583 26.0897 18.9403 26.0269C18.9223 25.9731 18.8413 25.9193 18.7693 25.9193C18.6974 25.9193 18.5264 25.7758 18.3914 25.5964C18.1935 25.3453 18.0945 25.2915 17.9416 25.3274C17.7796 25.3722 17.6626 25.3005 17.4197 25.0224C17.1048 24.6727 17.0958 24.6637 16.5109 24.6816C16.034 24.6906 15.8811 24.7265 15.7281 24.8879C15.6201 24.9955 15.4402 25.1928 15.3322 25.3274C15.2152 25.4529 15.0533 25.5606 14.9723 25.5606C14.8823 25.5606 14.6754 25.6861 14.5224 25.8296C14.3605 25.9821 14.1985 26.1076 14.1625 26.1166C14.1265 26.1345 14.0815 26.2063 14.0725 26.278C14.0545 26.3498 14.0185 26.4305 13.9825 26.4574C13.9556 26.4843 13.9556 26.4305 13.9825 26.3408C14.0185 26.2601 14.0005 26.1794 13.9466 26.1615C13.8746 26.1525 13.8926 26.0269 14.0095 25.7937C14.0995 25.5964 14.3245 25.3005 14.4954 25.1301C14.6664 24.9597 14.9723 24.7354 15.1702 24.6368C15.3682 24.5381 15.7101 24.4305 15.9351 24.3946C16.16 24.3588 16.5469 24.3498 16.7898 24.3677ZM13.7306 26.7265C13.7576 26.7265 13.8566 26.8162 13.9556 26.9238C14.0545 27.0404 14.1715 27.3184 14.2075 27.5606C14.2435 27.7937 14.2885 27.9821 14.3155 27.9821C14.3425 27.9821 14.5224 28.1256 14.7204 28.3139C14.9183 28.5023 15.1343 28.7713 15.2152 28.9148C15.3052 29.0942 15.5032 29.2377 15.8181 29.3632C16.079 29.4709 16.313 29.6233 16.34 29.7041C16.3759 29.8296 16.4479 29.8565 16.6369 29.8117C16.7718 29.7758 16.9158 29.713 16.9608 29.6771C17.0148 29.6323 16.9608 29.5964 16.8258 29.5964C16.6549 29.5964 16.6369 29.5785 16.7449 29.5067C16.8168 29.4619 16.9698 29.4171 17.0868 29.4171C17.1947 29.4171 17.3837 29.3632 17.5097 29.3005C17.6356 29.2467 17.7346 29.139 17.7346 29.0762C17.7346 29.0224 17.8246 28.8879 17.9416 28.7893C18.0495 28.6906 18.1755 28.6189 18.2295 28.6368C18.2835 28.6637 18.3914 28.6368 18.4814 28.6009C18.5624 28.5561 18.6344 28.4484 18.6344 28.3588C18.6344 28.278 18.6614 28.2332 18.6974 28.278C18.7424 28.3139 18.8413 28.2691 18.9313 28.1884C19.0303 28.0807 19.0933 28.0628 19.0843 28.1345C19.0843 28.1973 18.9673 28.4215 18.8233 28.6278C18.6884 28.8431 18.4364 29.1301 18.2655 29.2736C18.0945 29.4081 17.8426 29.5785 17.6896 29.6323C17.5367 29.6951 17.2757 29.7937 17.1048 29.8475C16.9338 29.9103 16.6729 29.9552 16.5199 29.9552C16.3669 29.9552 16.088 29.9103 15.8901 29.8565C15.6921 29.8027 15.3682 29.6951 15.1702 29.6054C14.9723 29.5157 14.6124 29.2108 14.3605 28.9328C13.9646 28.4754 13.8836 28.4215 13.6406 28.4574C13.4877 28.4843 13.2087 28.5561 13.0108 28.6099C12.8128 28.6637 12.4889 28.7534 12.291 28.7982C12.093 28.852 11.7511 28.9238 11.5262 28.9686C11.3012 29.0224 10.8603 29.1032 10.5364 29.157C10.2125 29.2108 9.69062 29.2825 9.3667 29.3184C8.83583 29.3632 8.77285 29.3991 8.64688 29.6413C8.5749 29.7848 8.40394 30.0897 8.27797 30.3139C8.14301 30.5381 7.91806 30.8431 7.7831 30.9866C7.63913 31.139 7.3782 31.3632 7.20724 31.4888C7.03628 31.6144 6.71236 31.8117 6.48742 31.9193C6.26248 32.0269 6.05553 32.1076 6.01954 32.1076C5.97455 32.1076 6.10951 31.9462 6.30746 31.7489C6.50541 31.5516 6.66737 31.3543 6.66737 31.3005C6.66737 31.2467 6.71236 31.2108 6.75735 31.2108C6.81134 31.2108 6.84733 31.1749 6.84733 31.1211C6.84733 31.0673 7.02728 30.861 7.25223 30.6458C7.54016 30.3767 7.71111 30.1166 7.84608 29.731C7.94506 29.435 8.05303 28.9866 8.08002 28.7444C8.09802 28.4933 8.13401 28.2063 8.161 28.0897C8.179 27.9821 8.25998 27.8924 8.33196 27.8924C8.43093 27.8924 8.45793 27.8296 8.42194 27.6771C8.38595 27.4978 8.42194 27.444 8.60189 27.4081C8.78185 27.3632 8.81784 27.3184 8.77285 27.148C8.72786 26.9955 8.73686 26.9776 8.81784 27.0852C8.87182 27.157 8.91681 27.5695 8.91681 28.7893L9.66363 28.7354C10.0685 28.7085 10.5454 28.6547 10.7164 28.6099C10.8873 28.565 11.2562 28.4843 11.5262 28.4305C11.7961 28.3767 12.3989 28.2153 13.6946 27.8476L13.6856 27.2825C13.6856 26.9776 13.7036 26.7265 13.7306 26.7265ZM0.512913 29.1659C0.530908 29.2556 0.629884 29.3453 0.728859 29.3722C0.827834 29.3991 0.908814 29.4798 0.908814 29.5516C0.908814 29.6233 1.01679 29.8117 1.16075 29.9731C1.29572 30.1345 1.48467 30.3498 1.58365 30.4484C1.68262 30.5561 1.80859 30.6547 1.87157 30.6816C1.92556 30.6996 1.98854 30.7803 2.00654 30.852C2.02453 30.9238 2.1595 31.0942 2.30347 31.2377C2.45643 31.3722 2.59139 31.4798 2.61839 31.4798C2.64538 31.4798 2.67237 31.5785 2.70836 31.9283L2.28547 31.6682C2.04253 31.5247 1.65563 31.1928 1.41269 30.9328C1.16975 30.6637 0.854827 30.1973 0.710863 29.8834C0.575897 29.5785 0.467924 29.2556 0.467924 29.1659C0.476922 29.0224 0.485919 29.0224 0.512913 29.1659ZM10.3385 33.157C10.3924 33.1659 10.5454 33.1839 10.6714 33.1839C10.8063 33.1839 11.0223 33.3094 11.2022 33.4709C11.3822 33.6502 11.5442 33.9193 11.6071 34.1435C11.6791 34.4305 11.6791 34.6278 11.6071 34.9058C11.5532 35.1211 11.3912 35.3902 11.2652 35.5157C11.1303 35.6413 10.8423 35.7937 10.6174 35.8655C10.2755 35.9731 10.1765 35.9731 9.87057 35.8655C9.67262 35.7937 9.41169 35.6413 9.27672 35.5157C9.15075 35.3902 8.98879 35.1121 8.92581 34.8879C8.81784 34.5471 8.81784 34.4305 8.92581 34.1256C8.99779 33.9283 9.17775 33.6413 9.33071 33.4798C9.51066 33.3005 9.71761 33.1839 9.91556 33.157C10.0865 33.139 10.2755 33.139 10.3385 33.157ZM26.0125 33.1659C26.1835 33.1839 26.4624 33.2915 26.6154 33.3991C26.7773 33.4978 26.9663 33.713 27.0383 33.8565C27.1103 34 27.1822 34.2242 27.1912 34.3498C27.2092 34.4754 27.1822 34.7354 27.1373 34.9328C27.0923 35.1301 26.9483 35.3902 26.8223 35.5157C26.6874 35.6413 26.4264 35.7937 26.2285 35.8655C25.9316 35.9731 25.8146 35.9731 25.4367 35.8655C25.1218 35.7758 24.9148 35.6502 24.7439 35.426C24.5999 35.2556 24.4649 34.9686 24.4289 34.7982C24.4019 34.6278 24.4109 34.3408 24.4469 34.1704C24.4829 34 24.6629 33.7041 24.8428 33.5247C25.0228 33.3363 25.2747 33.1839 25.4277 33.157C25.5806 33.139 25.8416 33.139 26.0125 33.1659Z" fill="white"/>
<path d="M44 20.5734L49.405 8.5H51.6005L57.0222 20.5734H54.6926L50.0418 9.69556H50.9301L46.2961 20.5734H44ZM46.4888 17.7782L47.0838 16.0185H53.5781L54.173 17.7782H46.4888ZM60.3848 20.5734V10.4028H56.4044V8.5H66.6026V10.4028H62.6222V20.5734H60.3848ZM76.7245 8.5H78.9535V20.5734H76.7245V8.5ZM70.5151 20.5734H68.286V8.5H70.5151V20.5734ZM76.9004 15.4039H70.3223V13.4843H76.9004V15.4039ZM84.2402 13.518H90.2149V15.3702H84.2402V13.518ZM84.4161 18.6959H91.1954V20.5734H82.1871V8.5H90.9524V10.3859H84.4161V18.6959ZM95.7386 13.518H101.713V15.3702H95.7386V13.518ZM95.9145 18.6959H102.694V20.5734H93.6855V8.5H102.451V10.3859H95.9145V18.6959Z" fill="white"/>
<path d="M104.932 20.5734V8.49994H109.867C110.934 8.49994 111.848 8.67394 112.608 9.02194C113.367 9.36433 113.954 9.85827 114.367 10.5038C114.781 11.1492 114.987 11.9126 114.987 12.7938C114.987 13.6807 114.781 14.444 114.367 15.0839C113.954 15.7182 113.367 16.2065 112.608 16.5489C111.848 16.8857 110.934 17.0541 109.867 17.0541H106.163L107.161 16.0353V20.5734H104.932ZM112.783 20.5734L109.75 16.1953H112.138L115.188 20.5734H112.783ZM107.161 16.2795L106.163 15.2102H109.767C110.75 15.2102 111.49 14.9997 111.987 14.5787C112.485 14.1522 112.733 13.5572 112.733 12.7938C112.733 12.0249 112.485 11.4355 111.987 11.0258C111.49 10.6104 110.75 10.4027 109.767 10.4027H106.163L107.161 9.29978V16.2795Z" fill="white"/>
<path d="M49.6471 28.9318C49.5582 29.7536 49.2714 30.3871 48.7867 30.8323C48.31 31.2774 47.6718 31.5 46.872 31.5C45.9995 31.5 45.3007 31.1704 44.7756 30.5112C44.2585 29.8521 44 28.9703 44 27.866V27.1212C44 26.3935 44.1212 25.7558 44.3635 25.2079C44.6059 24.66 44.9493 24.2405 45.3936 23.9494C45.846 23.6498 46.3671 23.5 46.9568 23.5C47.7324 23.5 48.3545 23.7311 48.823 24.1934C49.2997 24.6557 49.5744 25.2935 49.6471 26.1067H48.6776C48.5968 25.4904 48.4151 25.0452 48.1323 24.7713C47.8495 24.4888 47.4577 24.3475 46.9568 24.3475C46.3348 24.3475 45.846 24.5915 45.4905 25.0795C45.1431 25.5589 44.9695 26.248 44.9695 27.1469V27.9045C44.9695 28.7434 45.1351 29.4155 45.4663 29.9205C45.7975 30.4171 46.2661 30.6653 46.872 30.6653C47.4052 30.6653 47.8132 30.5369 48.0959 30.2801C48.3868 30.0233 48.5807 29.5738 48.6776 28.9318H49.6471ZM56.6296 27.7504C56.6296 28.5123 56.5084 29.18 56.266 29.7536C56.0237 30.3186 55.6803 30.7509 55.236 31.0506C54.7916 31.3502 54.2746 31.5 53.6848 31.5C53.1032 31.5 52.5861 31.3502 52.1337 31.0506C51.6894 30.7509 51.342 30.3229 51.0916 29.7665C50.8492 29.21 50.724 28.5637 50.7159 27.8274V27.2624C50.7159 26.5177 50.8371 25.8585 51.0794 25.2849C51.3299 24.7028 51.6773 24.2619 52.1216 23.9623C52.574 23.6541 53.0911 23.5 53.6727 23.5C54.2625 23.5 54.7795 23.6541 55.2239 23.9623C55.6763 24.2619 56.0237 24.6985 56.266 25.2721C56.5084 25.8371 56.6296 26.5005 56.6296 27.2624V27.7504ZM55.6601 27.2496C55.6601 26.325 55.4864 25.6188 55.139 25.1308C54.7916 24.6343 54.3029 24.386 53.6727 24.386C53.0587 24.386 52.574 24.6343 52.2185 25.1308C51.8712 25.6188 51.6934 26.3036 51.6853 27.1854V27.7504C51.6853 28.6493 51.8631 29.3555 52.2185 29.8692C52.574 30.3743 53.0628 30.6268 53.6848 30.6268C54.3069 30.6268 54.7876 30.3871 55.1269 29.9077C55.4743 29.4283 55.652 28.7349 55.6601 27.8274V27.2496ZM63.724 31.3973H62.7545L59.0585 25.4005V31.3973H58.0769V23.6156H59.0585L62.7667 29.638V23.6156H63.724V31.3973ZM71.093 31.3973H70.1236L66.4275 25.4005V31.3973H65.4459V23.6156H66.4275L70.1357 29.638V23.6156H71.093V31.3973ZM76.9715 27.8018H73.7844V30.5626H77.4926V31.3973H72.815V23.6156H77.432V24.4502H73.7844V26.9543H76.9715V27.8018ZM84.0947 28.9318C84.0058 29.7536 83.719 30.3871 83.2343 30.8323C82.7576 31.2774 82.1194 31.5 81.3196 31.5C80.4471 31.5 79.7483 31.1704 79.2232 30.5112C78.7061 29.8521 78.4476 28.9703 78.4476 27.866V27.1212C78.4476 26.3935 78.5688 25.7558 78.8112 25.2079C79.0535 24.66 79.3969 24.2405 79.8412 23.9494C80.2936 23.6498 80.8147 23.5 81.4044 23.5C82.18 23.5 82.8021 23.7311 83.2706 24.1934C83.7473 24.6557 84.022 25.2935 84.0947 26.1067H83.1252C83.0444 25.4904 82.8627 25.0452 82.5799 24.7713C82.2971 24.4888 81.9053 24.3475 81.4044 24.3475C80.7824 24.3475 80.2936 24.5915 79.9381 25.0795C79.5908 25.5589 79.4171 26.248 79.4171 27.1469V27.9045C79.4171 28.7434 79.5827 29.4155 79.9139 29.9205C80.2451 30.4171 80.7137 30.6653 81.3196 30.6653C81.8528 30.6653 82.2608 30.5369 82.5435 30.2801C82.8344 30.0233 83.0283 29.5738 83.1252 28.9318H84.0947ZM90.3491 24.4502H87.986V31.3973H87.0287V24.4502H84.6657V23.6156H90.3491V24.4502ZM92.4815 31.3973H91.512V23.6156H92.4815V31.3973ZM96.6864 30.0361L98.7829 23.6156H99.8493L97.1227 31.3973H96.2623L93.5478 23.6156H94.6021L96.6864 30.0361ZM101.869 31.3973H100.9V23.6156H101.869V31.3973ZM108.57 24.4502H106.207V31.3973H105.249V24.4502H102.886V23.6156H108.57V24.4502ZM111.983 27.5193L113.909 23.6156H115L112.467 28.4952V31.3973H111.498V28.4952L108.965 23.6156H110.08L111.983 27.5193Z" fill="white"/>
</svg>
